<svg width="46" height="42" viewBox="0 0 46 42" fill="none" xmlns="http://www.w3.org/2000/svg">
<path d="M36.5417 0.166697C38.869 0.165447 41.1135 1.02985 42.8388 2.59179C44.564 4.15373 45.6466 6.30153 45.8761 8.61745C46.1055 10.9334 45.4654 13.2518 44.0801 15.1219C42.6949 16.992 40.6636 18.28 38.3813 18.7354L38.4042 18.7917C39.4358 21.2837 39.8472 23.9888 39.6031 26.6748C39.359 29.3607 38.4667 31.9474 37.0028 34.2126C35.5389 36.4777 33.5471 38.3538 31.1985 39.6798C28.8499 41.0057 26.2146 41.7419 23.5188 41.825L23.0001 41.8334C20.2538 41.8341 17.5499 41.1561 15.1288 39.8598C12.7078 38.5635 10.6445 36.689 9.12259 34.403C7.60066 32.1171 6.6672 29.4904 6.40521 26.7567C6.14323 24.0229 6.56083 21.2668 7.62089 18.7334C5.337 18.2803 3.3035 16.9934 1.91644 15.1232C0.529375 13.2531 -0.11195 10.9336 0.117366 8.6165C0.346681 6.29942 1.43022 4.15065 3.15696 2.58866C4.88369 1.02667 7.12999 0.1633 9.45839 0.166697C11.856 0.166841 14.1624 1.08557 15.9034 2.73398C17.6444 4.38239 18.6877 6.6352 18.8188 9.0292L18.9709 8.98961C20.289 8.66325 21.6421 8.49884 23.0001 8.50003L23.5209 8.50836C24.7559 8.54584 25.9829 8.72052 27.1792 9.0292C27.3103 6.63484 28.3539 4.38173 30.0954 2.73326C31.8368 1.0848 34.1438 0.166309 36.5417 0.166697ZM23.0001 12.6667C21.3585 12.6667 19.7331 12.99 18.2165 13.6182C16.6999 14.2464 15.322 15.1671 14.1612 16.3279C13.0005 17.4886 12.0797 18.8666 11.4516 20.3832C10.8234 21.8997 10.5001 23.5252 10.5001 25.1667C10.5001 26.8082 10.8234 28.4337 11.4516 29.9502C12.0797 31.4668 13.0005 32.8448 14.1612 34.0055C15.322 35.1663 16.6999 36.087 18.2165 36.7152C19.7331 37.3434 21.3585 37.6667 23.0001 37.6667C26.3153 37.6667 29.4947 36.3497 31.8389 34.0055C34.1831 31.6613 35.5001 28.4819 35.5001 25.1667C35.5001 21.8515 34.1831 18.6721 31.8389 16.3279C29.4947 13.9837 26.3153 12.6667 23.0001 12.6667ZM9.45839 4.33336C8.07705 4.33336 6.75229 4.8821 5.77554 5.85885C4.79879 6.8356 4.25005 8.16036 4.25005 9.5417C4.25005 10.923 4.79879 12.2478 5.77554 13.2245C6.75229 14.2013 8.07705 14.75 9.45839 14.75L9.80005 14.7396L10.0146 14.7188C11.0971 13.3733 12.381 12.2033 13.8209 11.25L14.5084 10.8209C14.7031 10.0522 14.7198 9.24914 14.5571 8.47303C14.3944 7.69691 14.0566 6.9682 13.5695 6.34245C13.0824 5.71669 12.4589 5.21043 11.7464 4.86225C11.0339 4.51408 10.2514 4.33318 9.45839 4.33336ZM36.5417 4.33336C35.7843 4.3331 35.0359 4.49806 34.3487 4.81674C33.6615 5.13542 33.0522 5.60014 32.563 6.17851C32.0739 6.75688 31.7168 7.43498 31.5167 8.16552C31.3166 8.89606 31.2782 9.66146 31.4042 10.4084L31.4938 10.825L31.5521 10.8584C33.2458 11.8731 34.7466 13.1794 35.9855 14.7167C36.691 14.7968 37.4055 14.7318 38.0849 14.5256C38.7644 14.3195 39.3946 13.9766 39.9367 13.518C40.4788 13.0595 40.9214 12.4949 41.2374 11.859C41.5533 11.2231 41.7358 10.5293 41.7738 9.82022C41.8118 9.11118 41.7044 8.40185 41.4582 7.73584C41.2121 7.06982 40.8323 6.46117 40.3423 5.9473C39.8522 5.43342 39.2623 5.02517 38.6088 4.74762C37.9552 4.47008 37.2518 4.3291 36.5417 4.33336Z" fill="#EA3E2A"/>
</svg>
