<svg width="50" height="38" viewBox="0 0 50 38" fill="none" xmlns="http://www.w3.org/2000/svg">
<path d="M28.5 1.12099C27.406 0.602711 26.2105 0.333862 25 0.333862C23.7894 0.333862 22.594 0.602711 21.5 1.12099L1.19163 10.7418C0.817852 10.9182 0.504963 11.2017 0.292764 11.5563C0.0805652 11.911 -0.0213548 12.3208 -3.24082e-05 12.7335V12.8418V25.3418C-3.24082e-05 25.8944 0.219461 26.4243 0.610162 26.815C1.00086 27.2057 1.53077 27.4252 2.0833 27.4252C2.63584 27.4252 3.16574 27.2057 3.55644 26.815C3.94714 26.4243 4.16663 25.8944 4.16663 25.3418V15.9835L8.3333 18.0502V29.5085C8.33336 29.7826 8.38749 30.0539 8.4926 30.307C8.5977 30.5601 8.75171 30.79 8.9458 30.9835L9.04997 31.0835L9.29997 31.3127C10.6058 32.4764 12.0175 33.5156 13.5166 34.4168C16.3 36.0918 20.3208 37.8418 25 37.8418C29.6791 37.8418 33.7 36.0918 36.4875 34.4168C37.9866 33.5156 39.3983 32.4764 40.7041 31.3127L40.9541 31.0835L41.05 30.9835H41.0583C41.2521 30.7892 41.4057 30.5585 41.5101 30.3046C41.6145 30.0508 41.6677 29.7788 41.6666 29.5043V18.046L48.8416 14.4877C49.1924 14.314 49.4871 14.045 49.692 13.7115C49.8969 13.378 50.0038 12.9936 50.0003 12.6022C49.9968 12.2108 49.8832 11.8283 49.6723 11.4986C49.4615 11.1688 49.1621 10.9051 48.8083 10.7377L28.5 1.11682V1.12099ZM28.6333 24.5168L37.5 20.1168V28.5835C36.5116 29.4218 35.4567 30.1785 34.3458 30.846C31.9291 32.296 28.6541 33.6752 25 33.6752C21.3458 33.6752 18.075 32.3002 15.6541 30.846C14.5432 30.1785 13.4884 29.4218 12.5 28.5835V20.1168L21.3666 24.5168C23.6583 25.6502 26.3416 25.6502 28.6333 24.5168ZM26.7166 4.88766L43.1416 12.6668L26.7791 20.7835C26.2261 21.0575 25.6172 21.2 25 21.2C24.3828 21.2 23.7739 21.0575 23.2208 20.7835L6.8583 12.6668L23.2833 4.88766C23.8199 4.63336 24.4062 4.50145 25 4.50145C25.5937 4.50145 26.1801 4.63336 26.7166 4.88766ZM8.95413 30.9918L8.94997 30.9877L8.95413 30.9918Z" fill="#EA3E2A"/>
</svg>
