<svg width="42" height="42" viewBox="0 0 42 42" fill="none" xmlns="http://www.w3.org/2000/svg">
<path d="M10.5833 41.8334H5.89579C5.89579 41.8334 4.33329 41.8334 3.93746 39.0209L0.249959 3.93752L0.166626 3.29169C0.166626 1.56252 2.04163 0.166687 4.33329 0.166687C6.62496 0.166687 8.49996 1.56252 8.49996 3.29169C8.49996 1.56252 10.375 0.166687 12.6666 0.166687C14.9583 0.166687 16.8333 1.56252 16.8333 3.29169C16.8333 1.56252 18.7083 0.166687 21 0.166687C23.2708 0.166687 25.1666 1.54169 25.1666 3.29169C25.1666 1.56252 27.0416 0.166687 29.3333 0.166687C31.625 0.166687 33.5 1.56252 33.5 3.29169C33.5 1.56252 35.375 0.166687 37.6666 0.166687C39.9583 0.166687 41.8333 1.56252 41.8333 3.29169L41.75 3.93752L38.0625 39.0209C37.6666 41.8334 36.1041 41.8334 36.1041 41.8334H10.5833ZM33.1875 6.27085C32.5625 5.14585 31.0833 4.33335 29.3333 4.33335C27.6458 4.33335 25.9166 5.08335 25.1666 6.14585L24.7083 37.6667H30.7083L33.1875 6.27085ZM16.8333 6.14585C16.0833 5.08335 14.3541 4.33335 12.6666 4.33335C10.9166 4.33335 9.43746 5.14585 8.81246 6.27085L11.2916 37.6667H17.2916L16.8333 6.14585Z" fill="#EA3E2A"/>
</svg>
