<svg width="44" height="43" viewBox="0 0 44 43" fill="none" xmlns="http://www.w3.org/2000/svg">
<path fill-rule="evenodd" clip-rule="evenodd" d="M35.2029 0.941162H9.06468V3.97351H-0.0235596V18.197C-0.0235596 23.6941 6.11173 28.2176 12.1323 28.6882C14.1088 30.8059 17.5853 32.3441 20.6794 33V36.7176C17.7206 37.6265 12.4353 39.7617 12.1323 42.0882H32.4382C32.1323 39.7617 26.3088 37.6235 23.3441 36.7176V33C26.45 32.3441 30.0823 30.8059 32.0617 28.6882C38.0794 28.2176 43.9441 23.6941 43.9441 18.197V3.97351H35.2029V0.941162ZM2.76762 6.66763H8.85291V18.9206C8.85291 21.3382 9.47644 23.6382 10.5735 25.7088C6.02056 24.2588 2.76762 20.5235 2.76762 16.1529V6.66763ZM26.6029 21.6117L22.0617 19.1088L17.5147 21.6117L18.3823 16.3176L14.7059 12.5706L19.7853 11.797L22.0617 6.98528L24.3323 11.797L29.4117 12.5706L25.7353 16.3176L26.6029 21.6117ZM33.3529 26.1C34.4559 23.9353 35.0882 21.5412 35.0882 19.0088V6.74704H41.1882V16.1176C41.1882 20.6853 37.9206 24.5853 33.3529 26.1Z" fill="#EA3E2A"/>
</svg>
