<svg width="50" height="50" viewBox="0 0 50 50" fill="none" xmlns="http://www.w3.org/2000/svg">
<path d="M29.1667 16.6667C29.1667 15.5616 28.7277 14.5018 27.9463 13.7204C27.1649 12.939 26.1051 12.5 25 12.5" stroke="#EA3E2A" stroke-width="4" stroke-linecap="round" stroke-linejoin="round"/>
<path d="M12.5 16.6666C12.5 13.3514 13.817 10.172 16.1612 7.82779C18.5054 5.48359 21.6848 4.16663 25 4.16663C28.3152 4.16663 31.4946 5.48359 33.8388 7.82779C36.183 10.172 37.5 13.3514 37.5 16.6666C37.5 27.0208 31.9042 35.4166 25 35.4166C18.0958 35.4166 12.5 27.0208 12.5 16.6666Z" stroke="#EA3E2A" stroke-width="4" stroke-linecap="round" stroke-linejoin="round"/>
<path d="M25 35.4166V37.5C25 38.605 24.561 39.6648 23.7796 40.4462C22.9982 41.2276 21.9384 41.6666 20.8333 41.6666H14.5833C13.4782 41.6666 12.4184 42.1056 11.637 42.887C10.8556 43.6684 10.4166 44.7282 10.4166 45.8333" stroke="#EA3E2A" stroke-width="4" stroke-linecap="round" stroke-linejoin="round"/>
</svg>
